<?xml version="1.0" standalone="no"?><!DOCTYPE svg PUBLIC "-//W3C//DTD SVG 1.1//EN" "http://www.w3.org/Graphics/SVG/1.1/DTD/svg11.dtd"><svg t="1643451843383" class="icon" viewBox="0 0 1024 1024" version="1.1" xmlns="http://www.w3.org/2000/svg" p-id="16565" xmlns:xlink="http://www.w3.org/1999/xlink" width="36" height="36"><defs><style type="text/css"></style></defs><path d="M874.666667 85.333333 795.733333 174.08 803.413333 181.76 445.866667 518.826667C436.48 528.213333 403.2 544 395.093333 523.946667 375.893333 474.453333 436.48 469.333333 426.666667 460.8 381.44 438.613333 329.813333 477.013333 327.253333 479.146667 296.106667 502.613333 277.333333 530.346667 267.093333 560.213333 254.293333 599.04 220.586667 603.733333 201.813333 604.586667 155.306667 607.573333 128 619.946667 106.666667 649.813333 96.853333 663.04 81.066667 682.666667 85.333333 723.626667 92.16 768 125.866667 824.746667 151.893333 853.333333 179.626667 882.773333 215.466667 912.213333 247.893333 928 270.933333 938.666667 285.013333 942.08 318.72 933.546667 348.586667 925.866667 378.026667 901.973333 390.4 870.4 400.64 843.093333 401.92 823.466667 406.613333 801.28 412.586667 772.693333 416.426667 768 446.72 754.346667 475.306667 741.973333 490.666667 740.266667 514.133333 715.946667 530.773333 698.453333 539.306667 679.68 544.426667 659.626667 548.693333 642.56 551.68 621.226667 543.573333 618.666667 536.32 612.266667 523.52 653.226667 493.226667 634.026667 471.466667 620.373333 474.026667 586.24 492.8 567.04 614.826667 442.88 714.666667 341.333333 837.546667 217.173333L847.36 226.986667 938.666667 149.333333Z" p-id="16566"></path></svg>